<svg width="100" height="24" viewBox="0 0 100 24" fill="none" xmlns="http://www.w3.org/2000/svg">
<path d="M12.3778 2.41565C9.67192 2.41565 7.4707 4.54962 7.4707 7.17234V9.42334H8.95336V7.17287C8.95336 5.3492 10.489 3.86548 12.3794 3.86548C14.2698 3.86548 15.8059 5.34814 15.8059 7.17287V9.42387H17.2886V7.17287C17.2854 4.55015 15.0842 2.41565 12.3778 2.41565Z" fill="#2B6F8A"/>
<path d="M19.0472 22H5.33891C4.92442 22 4.51494 21.9093 4.13927 21.7342C3.76359 21.559 3.43082 21.3037 3.16435 20.9862C2.89788 20.6687 2.70417 20.2967 2.59683 19.8964C2.4895 19.496 2.47114 19.077 2.54304 18.6688L4.2105 9.20784C4.32641 8.55055 4.67021 7.95511 5.18152 7.52612C5.69283 7.09712 6.33894 6.862 7.00638 6.86206H17.3824C18.0498 6.862 18.6959 7.09712 19.2072 7.52612C19.7185 7.95511 20.0623 8.55055 20.1782 9.20784L21.8457 18.6688C21.9176 19.0772 21.8992 19.4965 21.7917 19.897C21.6842 20.2976 21.4903 20.6697 21.2235 20.9872C20.9568 21.3048 20.6237 21.56 20.2477 21.735C19.8717 21.91 19.4619 22.0004 19.0472 22Z" fill="#4B0082"/>
<path d="M8.7298 15.9004C8.80866 15.8731 8.88431 15.9487 8.85704 16.0276L8.35593 17.4773L8.3056 17.6206L7.94696 18.6532L7.76695 19.1744C7.7376 19.2594 7.61974 19.2655 7.58178 19.184L7.33456 18.6532L6.95837 17.847C6.94849 17.8258 6.93149 17.8088 6.91034 17.7988L6.70399 17.7017L5.5738 17.1754C5.49233 17.1375 5.49836 17.0197 5.58328 16.9903L6.70399 16.602L7.13742 16.4524L7.97982 16.1602L8.7298 15.9004Z" fill="#50D0FF"/>
<path d="M11.7781 13.6995C11.7781 13.6998 11.7777 13.6999 11.7776 13.6996C11.5065 13.1934 11.1047 12.769 10.6141 12.4705C10.1232 12.1719 9.56119 12.0103 8.98662 12.0024H6.8041C6.74887 12.0024 6.7041 12.0472 6.7041 12.1024V16.0314C6.7041 16.1001 6.77183 16.1484 6.83678 16.1259L7.91261 15.754C7.95291 15.74 7.97994 15.7021 7.97994 15.6594V13.2752C7.97994 13.2195 8.02534 13.1746 8.08097 13.1752L8.923 13.1839C9.28435 13.1903 9.6371 13.2951 9.94324 13.4872C10.2494 13.6792 10.4973 13.9512 10.6602 14.2738C10.8054 14.6059 10.8808 14.9642 10.8818 15.3266C10.8896 15.6903 10.8138 16.051 10.6602 16.3808C10.3359 17.0457 9.59762 17.4609 8.923 17.4707H8.86067C8.81806 17.4707 8.78013 17.4977 8.76618 17.538L8.42648 18.5187C8.40398 18.5837 8.45223 18.6515 8.52098 18.6515H8.98662C10.1143 18.6515 11.2321 17.9852 11.7781 16.9506C12.0264 16.4445 12.1555 15.8882 12.1555 15.3245C12.1555 14.7611 12.0266 14.2052 11.7786 13.6994C11.7784 13.6992 11.7781 13.6992 11.7781 13.6995Z" fill="#50D0FF"/>
<path d="M18.0694 12.1C18.0694 12.0448 18.0247 12 17.9694 12H13.1793C13.1241 12 13.0793 12.0448 13.0793 12.1V13.0738C13.0793 13.129 13.1241 13.1738 13.1793 13.1738H16.2468C16.3302 13.1738 16.377 13.2699 16.3255 13.3355L13.1007 17.4432C13.0869 17.4608 13.0793 17.4825 13.0793 17.5049V18.5532C13.0793 18.6084 13.1241 18.6532 13.1793 18.6532H17.9694C18.0247 18.6532 18.0694 18.6084 18.0694 18.5532V17.5704C18.0694 17.5151 18.0247 17.4704 17.9694 17.4704H14.9022C14.8188 17.4704 14.772 17.3741 14.8237 17.3085L18.048 13.2101C18.0619 13.1924 18.0694 13.1707 18.0694 13.1482V12.1Z" fill="#50D0FF"/>
<path d="M12.0077 2C9.30181 2 7.10059 4.13397 7.10059 6.75669V8.26583C7.10059 8.67526 7.43249 9.00716 7.84192 9.00716C8.25134 9.00716 8.58325 8.67526 8.58325 8.26583V6.75775C8.58325 4.93408 10.1189 3.44983 12.0093 3.44983C13.8996 3.44983 15.4358 4.93249 15.4358 6.75775V8.26689C15.4358 8.67631 15.7677 9.00822 16.1771 9.00822C16.5865 9.00822 16.9184 8.67631 16.9184 8.26689V6.75775C16.9153 4.13397 14.714 2 12.0077 2Z" fill="#50D0FF"/>
<path d="M34.7955 12.9823L32.6306 12.3575C32.0075 12.1663 31.4358 11.9415 31.2145 11.699C31.137 11.6218 31.0755 11.5299 31.0339 11.4287C30.9923 11.3275 30.9712 11.219 30.972 11.1095C30.979 10.8955 31.0418 10.687 31.1542 10.5048C31.2666 10.3225 31.4247 10.1728 31.6128 10.0705C32.0751 9.82472 32.594 9.70499 33.1172 9.72332C33.6405 9.74165 34.1497 9.8974 34.5937 10.1749C35.1831 10.5289 35.4433 10.9538 35.7549 11.5786L38.1445 10.9378C37.7199 9.73944 36.8778 8.73405 35.7726 8.10564C34.9609 7.69901 34.0641 7.4915 33.1563 7.50027C32.3244 7.50027 31.4234 7.5693 30.5224 7.98528C29.9286 8.25144 29.4227 8.68103 29.0638 9.22388C28.705 9.76674 28.5079 10.4005 28.4956 11.0511C28.4878 11.5091 28.5799 11.9633 28.7654 12.3821C28.951 12.801 29.2256 13.1743 29.5701 13.4762C30.1755 14.0072 31.0251 14.3772 31.9597 14.6374L34.2821 15.3136C34.6888 15.4117 35.0677 15.6012 35.3902 15.8676C35.5134 15.9751 35.6115 16.1083 35.6776 16.2579C35.7437 16.4075 35.7761 16.5697 35.7726 16.7332C35.78 16.932 35.738 17.1296 35.6502 17.3081C35.5625 17.4867 35.4318 17.6407 35.2699 17.7563C34.8185 18.1103 33.9865 18.2874 33.3227 18.2874C32.4926 18.2874 31.5225 17.9758 31.0216 17.2837C30.6883 16.8297 30.4736 16.2998 30.3967 15.7419L28 16.3951C28.1851 17.2788 28.5702 18.1084 29.1258 18.8202C30.1471 20.0592 31.5686 20.5 33.2325 20.5C34.5477 20.5 35.6912 20.3442 36.6452 19.7034C37.0991 19.4134 37.4796 19.0223 37.7572 18.5608C38.0348 18.0993 38.202 17.5798 38.2455 17.043C38.289 16.5062 38.2078 15.9666 38.0082 15.4663C37.8086 14.9661 37.496 14.5188 37.0949 14.1594C36.5461 13.639 35.9053 13.3098 34.7955 12.9823Z" fill="#4B0082"/>
<path d="M47.4944 11.6653C46.694 10.9695 45.6623 10.5982 44.6021 10.6245C43.6859 10.6556 42.8021 10.9704 42.0726 11.5255V7.76575H39.9927V20.2415H42.3664V16.1703C42.3506 15.6024 42.3855 15.0343 42.4708 14.4727C42.5478 14.0033 42.794 13.5782 43.163 13.2779C43.4878 13.0474 43.8746 12.9203 44.2728 12.9132C44.9136 12.9132 45.4163 13.0903 45.7456 13.4337C46.2306 13.9187 46.3686 14.7152 46.3686 15.5578V20.2362H48.7601V15.5631C48.7601 13.9346 48.6043 12.6867 47.4944 11.6653Z" fill="#4B0082"/>
<path d="M55.0473 10.3658C53.679 10.3658 52.3284 10.8968 51.4611 11.9235C50.694 12.8801 50.289 14.0767 50.3176 15.3026C50.3176 16.5842 50.6716 17.7117 51.4611 18.6818C52.3284 19.7031 53.6613 20.2412 55.0473 20.2412C56.4333 20.2412 57.7503 19.7208 58.6336 18.6818C59.4182 17.7338 59.831 16.5326 59.7948 15.3026C59.7948 14.0387 59.4655 12.9112 58.6336 11.9235C57.768 10.8844 56.4333 10.3658 55.0473 10.3658ZM56.7626 17.2427C56.5522 17.4928 56.2897 17.694 55.9934 17.832C55.6971 17.9699 55.3742 18.0414 55.0473 18.0414C54.7205 18.0414 54.3976 17.9699 54.1013 17.832C53.805 17.694 53.5424 17.4928 53.3321 17.2427C52.9338 16.724 52.8134 16.0124 52.8134 15.2955C52.8134 14.5786 52.9338 13.8582 53.3321 13.3378C53.7304 12.8174 54.3552 12.5589 55.0473 12.5589C55.7394 12.5589 56.382 12.8174 56.7626 13.3378C57.1431 13.8582 57.2936 14.5857 57.2936 15.2955C57.2936 16.0053 57.1608 16.724 56.7626 17.2427Z" fill="#4B0082"/>
<path d="M66.2886 10.1792C65.3845 10.1767 64.5038 10.4467 63.7775 10.9492V10.4139H61.7539V22.924H64.0634V18.5836C64.7736 18.9711 65.5849 19.1675 66.4074 19.1511C67.0045 19.1555 67.5953 19.0364 68.1372 18.8023C68.6792 18.5683 69.1589 18.2251 69.5419 17.7975C70.3169 16.9165 70.6045 15.8298 70.6045 14.6659C70.6045 13.5021 70.2497 12.3687 69.5419 11.5344C68.7669 10.6342 67.5527 10.1792 66.2886 10.1792ZM67.7163 16.4873C67.3288 17.0387 66.6709 17.2429 66.0302 17.2429C65.7306 17.2567 65.4312 17.2104 65.1523 17.1073C64.8733 17.0041 64.6213 16.8465 64.413 16.6449C63.9739 16.1883 63.7724 15.4344 63.7724 14.6627C63.7724 13.8911 63.9739 13.1516 64.413 12.6806C64.6043 12.4803 64.8414 12.3225 65.1066 12.219C65.3719 12.1155 65.6587 12.0689 65.9458 12.0826C66.7053 12.0826 67.2943 12.2867 67.6818 12.8381C68.0022 13.2786 68.171 13.9393 68.171 14.6627C68.171 15.3861 68.0418 16.0549 67.7163 16.4873Z" fill="#4B0082"/>
<path d="M78.4052 7.76572H74.1445V20.1831H78.4052C79.4775 20.1669 80.526 19.8644 81.4422 19.3071C82.3584 18.7497 83.109 17.9576 83.6164 17.0128C84.0811 16.0686 84.3227 15.0303 84.3227 13.9779C84.3227 12.9256 84.0811 11.8873 83.6164 10.9431C83.1116 9.99562 82.3617 9.201 81.4451 8.64212C80.5285 8.08324 79.4787 7.78058 78.4052 7.76572ZM81.5259 15.9401C81.2155 16.537 80.7515 17.0403 80.1818 17.3981C79.6121 17.7559 78.9573 17.9553 78.2848 17.9758L76.5253 17.9917V9.95713L78.2848 9.97306C78.9592 9.98521 79.6174 10.1812 80.1886 10.5399C80.7598 10.8987 81.2221 11.4065 81.5259 12.0087C81.7986 12.6285 81.9397 13.2982 81.9401 13.9753C81.9568 14.6535 81.815 15.3263 81.5259 15.9401Z" fill="#50D0FF"/>
<path d="M95.2283 7.76562H85.9158V9.95703H92.2103L85.9158 17.9757V20.183H95.2283V17.9757H88.9338L95.2283 9.97296V7.76562Z" fill="#50D0FF"/>
</svg>
