<svg width="100" height="24" viewBox="0 0 100 24" fill="none" xmlns="http://www.w3.org/2000/svg">
<path d="M12.0078 2C14.7141 2.00008 16.9148 4.13408 16.918 6.75781V6.8623H17.3828C18.05 6.86234 18.6959 7.09756 19.207 7.52637C19.7183 7.95534 20.0628 8.55075 20.1787 9.20801L21.8457 18.6689C21.9176 19.0774 21.8995 19.4969 21.792 19.8975C21.6845 20.2979 21.4903 20.6698 21.2236 20.9873C20.957 21.3047 20.6239 21.5604 20.248 21.7354C19.8723 21.9102 19.4623 22.0013 19.0479 22.001H5.33887C4.92455 22.001 4.51518 21.9094 4.13965 21.7344C3.7641 21.5593 3.43145 21.3037 3.16504 20.9863C2.89857 20.6688 2.70402 20.2968 2.59668 19.8965C2.48939 19.4962 2.47108 19.0771 2.54297 18.6689L4.21094 9.20801C4.32686 8.55078 4.67039 7.95533 5.18164 7.52637C5.69292 7.09741 6.33944 6.86227 7.00684 6.8623H7.10059V6.75684C7.10059 4.13412 9.30196 2 12.0078 2ZM8.72949 15.9004L7.1377 16.4531L6.7041 16.6025L5.58301 16.9902C5.49833 17.0198 5.49287 17.1379 5.57422 17.1758L6.7041 17.7021L6.91016 17.7988C6.9313 17.8088 6.9491 17.8265 6.95898 17.8477L7.58203 19.1846C7.62024 19.2653 7.73812 19.2593 7.76758 19.1748L7.94727 18.6533L8.30566 17.6211L8.35645 17.4775L8.85742 16.0273C8.88438 15.9486 8.80825 15.8731 8.72949 15.9004ZM13.1797 12C13.1245 12.0001 13.0801 12.0454 13.0801 12.1006V13.0742C13.0803 13.1292 13.1247 13.1737 13.1797 13.1738H16.2471C16.3302 13.1741 16.3774 13.2704 16.3262 13.3359L13.1006 17.4434C13.0869 17.4609 13.0801 17.4826 13.0801 17.5049V18.5537C13.0803 18.6087 13.1247 18.6532 13.1797 18.6533H17.9697C18.0246 18.6531 18.0691 18.6086 18.0693 18.5537V17.5703C18.0693 17.5152 18.0248 17.4709 17.9697 17.4707H14.9023C14.8189 17.4706 14.7726 17.3742 14.8242 17.3086L18.0479 13.21C18.0617 13.1924 18.0693 13.1708 18.0693 13.1484V12.1006C18.0693 12.0455 18.0248 12.0002 17.9697 12H13.1797ZM6.80371 12.0029C6.74861 12.0031 6.7041 12.0474 6.7041 12.1025V16.0312C6.7041 16.0999 6.77201 16.1483 6.83691 16.126L7.91309 15.7539C7.95286 15.7399 7.98017 15.7023 7.98047 15.6602V13.2754C7.98047 13.2198 8.02552 13.1753 8.08105 13.1758L8.92285 13.1846C9.28415 13.1909 9.63725 13.2953 9.94336 13.4873C10.2494 13.6794 10.4973 13.9519 10.6602 14.2744C10.8052 14.6063 10.8808 14.9649 10.8818 15.3271C10.8895 15.6907 10.8137 16.0512 10.6602 16.3809C10.3358 17.0457 9.59745 17.4609 8.92285 17.4707H8.86035C8.81787 17.4708 8.78056 17.498 8.7666 17.5381L8.42676 18.5186C8.40426 18.5835 8.45274 18.6514 8.52148 18.6514H8.98633C10.1138 18.6514 11.2323 17.9856 11.7783 16.9512C12.0266 16.4453 12.1552 15.8887 12.1553 15.3252C12.1553 14.7618 12.0264 14.205 11.7783 13.6992V13.7002C11.5072 13.1941 11.1048 12.7692 10.6143 12.4707C10.1233 12.1721 9.56089 12.0108 8.98633 12.0029H6.80371ZM12.0088 3.4502C10.1186 3.45044 8.58301 4.93429 8.58301 6.75781V6.8623H15.4355V6.75781C15.4355 4.93255 13.8992 3.4502 12.0088 3.4502Z" fill="white"/>
<path d="M34.7955 12.9823L32.6306 12.3575C32.0075 12.1663 31.4358 11.9415 31.2145 11.699C31.137 11.6218 31.0755 11.5299 31.0339 11.4287C30.9923 11.3275 30.9712 11.219 30.972 11.1095C30.979 10.8955 31.0418 10.687 31.1542 10.5048C31.2666 10.3225 31.4247 10.1728 31.6128 10.0705C32.0751 9.82472 32.594 9.70499 33.1172 9.72332C33.6405 9.74165 34.1497 9.8974 34.5937 10.1749C35.1831 10.5289 35.4433 10.9538 35.7549 11.5786L38.1445 10.9378C37.7199 9.73944 36.8778 8.73405 35.7726 8.10564C34.9609 7.69901 34.0641 7.4915 33.1563 7.50027C32.3244 7.50027 31.4234 7.5693 30.5224 7.98528C29.9286 8.25144 29.4227 8.68103 29.0638 9.22388C28.705 9.76674 28.5079 10.4005 28.4956 11.0511C28.4878 11.5091 28.5799 11.9633 28.7654 12.3821C28.951 12.801 29.2256 13.1743 29.5701 13.4762C30.1755 14.0072 31.0251 14.3772 31.9597 14.6374L34.2821 15.3136C34.6888 15.4117 35.0677 15.6012 35.3902 15.8676C35.5134 15.9751 35.6115 16.1083 35.6776 16.2579C35.7437 16.4075 35.7761 16.5697 35.7726 16.7332C35.78 16.932 35.738 17.1296 35.6502 17.3081C35.5625 17.4867 35.4318 17.6407 35.2699 17.7563C34.8185 18.1103 33.9865 18.2874 33.3227 18.2874C32.4926 18.2874 31.5225 17.9758 31.0216 17.2837C30.6883 16.8297 30.4736 16.2998 30.3967 15.7419L28 16.3951C28.1851 17.2788 28.5702 18.1084 29.1258 18.8202C30.1471 20.0592 31.5686 20.5 33.2325 20.5C34.5477 20.5 35.6912 20.3442 36.6452 19.7034C37.0991 19.4134 37.4796 19.0223 37.7572 18.5608C38.0348 18.0993 38.202 17.5798 38.2455 17.043C38.289 16.5062 38.2078 15.9666 38.0082 15.4663C37.8086 14.9661 37.496 14.5188 37.0949 14.1594C36.5461 13.639 35.9053 13.3098 34.7955 12.9823Z" fill="white"/>
<path d="M47.4944 11.6653C46.694 10.9695 45.6623 10.5982 44.6021 10.6245C43.6859 10.6556 42.8021 10.9704 42.0726 11.5255V7.76575H39.9927V20.2415H42.3664V16.1703C42.3506 15.6024 42.3855 15.0343 42.4708 14.4727C42.5478 14.0033 42.794 13.5782 43.163 13.2779C43.4878 13.0474 43.8746 12.9203 44.2728 12.9132C44.9136 12.9132 45.4163 13.0903 45.7456 13.4337C46.2306 13.9187 46.3686 14.7152 46.3686 15.5578V20.2362H48.7601V15.5631C48.7601 13.9346 48.6043 12.6867 47.4944 11.6653Z" fill="white"/>
<path d="M55.0476 10.3658C53.6793 10.3658 52.3287 10.8968 51.4613 11.9235C50.6942 12.8801 50.2893 14.0768 50.3178 15.3026C50.3178 16.5842 50.6718 17.7118 51.4613 18.6818C52.3287 19.7031 53.6616 20.2413 55.0476 20.2413C56.4336 20.2413 57.7505 19.7208 58.6338 18.6818C59.4184 17.7338 59.8312 16.5327 59.795 15.3026C59.795 14.0388 59.4658 12.9112 58.6338 11.9235C57.7682 10.8844 56.4336 10.3658 55.0476 10.3658ZM56.7628 17.2427C56.5525 17.4929 56.2899 17.694 55.9936 17.832C55.6973 17.97 55.3744 18.0415 55.0476 18.0415C54.7207 18.0415 54.3978 17.97 54.1015 17.832C53.8052 17.694 53.5427 17.4929 53.3323 17.2427C52.9341 16.724 52.8137 16.0124 52.8137 15.2956C52.8137 14.5787 52.9341 13.8582 53.3323 13.3378C53.7306 12.8174 54.3555 12.559 55.0476 12.559C55.7397 12.559 56.3822 12.8174 56.7628 13.3378C57.1434 13.8582 57.2938 14.5857 57.2938 15.2956C57.2938 16.0054 57.1611 16.724 56.7628 17.2427Z" fill="white"/>
<path d="M66.2886 10.1792C65.3845 10.1767 64.5038 10.4467 63.7775 10.9492V10.4139H61.7539V22.924H64.0634V18.5836C64.7736 18.9711 65.5849 19.1675 66.4074 19.1511C67.0045 19.1555 67.5953 19.0364 68.1372 18.8023C68.6792 18.5683 69.1589 18.2251 69.5419 17.7975C70.3169 16.9165 70.6045 15.8298 70.6045 14.6659C70.6045 13.5021 70.2497 12.3687 69.5419 11.5344C68.7669 10.6342 67.5527 10.1792 66.2886 10.1792ZM67.7163 16.4873C67.3288 17.0387 66.6709 17.2429 66.0302 17.2429C65.7306 17.2567 65.4312 17.2104 65.1523 17.1073C64.8733 17.0041 64.6213 16.8465 64.413 16.6449C63.9739 16.1883 63.7724 15.4344 63.7724 14.6627C63.7724 13.8911 63.9739 13.1516 64.413 12.6806C64.6043 12.4803 64.8414 12.3225 65.1066 12.219C65.3719 12.1155 65.6587 12.0689 65.9458 12.0826C66.7053 12.0826 67.2943 12.2867 67.6818 12.8381C68.0022 13.2786 68.171 13.9393 68.171 14.6627C68.171 15.3861 68.0418 16.0549 67.7163 16.4873Z" fill="white"/>
<path d="M78.4052 7.76575H74.1445V20.1831H78.4052C79.4775 20.1669 80.526 19.8645 81.4422 19.3071C82.3584 18.7497 83.109 17.9576 83.6164 17.0128C84.0811 16.0686 84.3227 15.0303 84.3227 13.978C84.3227 12.9256 84.0811 11.8873 83.6164 10.9431C83.1116 9.99564 82.3617 9.20102 81.4451 8.64214C80.5285 8.08326 79.4787 7.78061 78.4052 7.76575ZM81.5259 15.9401C81.2155 16.537 80.7515 17.0403 80.1818 17.3981C79.6121 17.7559 78.9573 17.9553 78.2848 17.9758L76.5253 17.9917V9.95715L78.2848 9.97308C78.9592 9.98523 79.6174 10.1812 80.1886 10.54C80.7598 10.8987 81.2221 11.4065 81.5259 12.0087C81.7986 12.6285 81.9397 13.2982 81.9401 13.9753C81.9568 14.6536 81.815 15.3263 81.5259 15.9401Z" fill="white"/>
<path d="M95.2286 7.76562H85.916V9.95703H92.2105L85.916 17.9757V20.183H95.2286V17.9757H88.9341L95.2286 9.97296V7.76562Z" fill="white"/>
</svg>
