<svg width="393" height="179" viewBox="0 0 393 179" fill="none" xmlns="http://www.w3.org/2000/svg">
<path d="M453.905 0C453.905 1.86653 452.917 3.733 450.942 4.65723L450.683 4.77832C447.034 6.48579 446.807 11.5895 450.289 13.6152C453.938 15.738 453.469 21.1503 449.509 22.6133L448.006 23.1689C444.323 24.5293 443.657 29.4519 446.846 31.7412C450.181 34.1348 449.268 39.3225 445.317 40.4346L442.562 41.21C438.863 42.251 437.779 46.9708 440.653 49.5215C443.653 52.1842 442.317 57.1301 438.385 57.9199L434.442 58.7109C430.736 59.455 429.247 63.9501 431.776 66.7598C434.414 69.6902 432.667 74.3776 428.755 74.8662L423.762 75.4893C420.05 75.9529 418.165 80.2023 420.314 83.2656C422.554 86.4596 420.404 90.8709 416.508 91.0732L410.667 91.376C406.943 91.5691 404.668 95.5505 406.392 98.8564C408.191 102.305 405.64 106.421 401.751 106.344L395.32 106.215C391.576 106.14 388.912 109.833 390.165 113.362C391.473 117.048 388.52 120.846 384.626 120.487L377.612 119.84C373.983 119.505 371.052 122.752 371.755 126.328L371.875 126.938C372.61 130.678 369.381 134.002 365.621 133.375L357.853 132.08C354.433 131.51 351.355 134.232 351.503 137.696L351.573 139.344C351.728 142.977 348.353 145.743 344.821 144.878L336.43 142.822C333.229 142.038 330.069 144.249 329.707 147.524L329.406 150.247C329.025 153.695 325.568 155.917 322.273 154.832L313.591 151.973C310.609 150.991 307.415 152.72 306.608 155.754L305.617 159.479C304.764 162.685 301.272 164.395 298.217 163.104L289.585 159.454C286.816 158.284 283.622 159.572 282.44 162.336L280.491 166.896C279.236 169.831 275.741 171.067 272.92 169.574L264.668 165.209C262.103 163.852 258.925 164.739 257.433 167.228L254.341 172.387C252.747 175.045 249.264 175.845 246.671 174.148L239.098 169.194C236.73 167.645 233.57 168.163 231.82 170.388L227.5 175.88C225.619 178.27 222.148 178.662 219.781 176.752L213.135 171.388C210.961 169.633 207.813 169.803 205.841 171.782L200.304 177.337C198.171 179.477 194.705 179.477 192.572 177.337L187.037 171.782C185.065 169.803 181.916 169.633 179.742 171.388L173.096 176.752C170.73 178.662 167.258 178.27 165.378 175.88L161.057 170.388C159.308 168.163 156.147 167.645 153.779 169.194L146.206 174.148C143.613 175.845 140.129 175.045 138.536 172.387L135.444 167.228C133.952 164.739 130.774 163.852 128.21 165.209L119.958 169.574C117.136 171.067 113.641 169.831 112.386 166.896L110.437 162.336C109.256 159.572 106.061 158.284 103.293 159.454L94.6599 163.104C91.6044 164.395 88.1134 162.685 87.2605 159.479L86.2693 155.754C85.4623 152.72 82.2687 150.991 79.2869 151.973L70.6042 154.832C67.3099 155.917 63.8522 153.695 63.4714 150.247L63.1707 147.524C62.8087 144.249 59.6482 142.038 56.447 142.822L48.0564 144.878C44.5243 145.743 41.1497 142.977 41.3044 139.344L41.3748 137.696C41.5223 134.232 38.4443 131.51 35.0242 132.08L27.2556 133.375C23.4955 134.001 20.2674 130.678 21.0027 126.938L21.1228 126.328C21.8255 122.753 18.8939 119.505 15.2654 119.84L8.25171 120.487C4.3578 120.847 1.40366 117.048 2.71167 113.362C3.96447 109.833 1.30162 106.14 -2.44263 106.215L-8.87329 106.344C-12.7621 106.422 -15.314 102.305 -13.5149 98.8564C-11.7906 95.5505 -14.0656 91.5691 -17.7893 91.376L-23.6301 91.0732C-27.5263 90.8711 -29.6769 86.4597 -27.4368 83.2656C-25.2881 80.2024 -27.1722 75.9531 -30.885 75.4893L-35.8772 74.8662C-39.7899 74.3776 -41.5369 69.6902 -38.8987 66.7598C-36.3693 63.9501 -37.8582 59.4551 -41.5647 58.7109L-45.5071 57.9199C-49.4399 57.1303 -50.7758 52.1842 -47.7756 49.5215C-44.9019 46.9708 -45.986 42.251 -49.6848 41.21L-52.4407 40.4346C-56.3916 39.3223 -57.3035 34.1347 -53.969 31.7412C-50.7801 29.4519 -51.4457 24.5293 -55.1282 23.1689L-56.6311 22.6133C-60.5912 21.1504 -61.0605 15.738 -57.4114 13.6152C-53.9292 11.5895 -54.1571 6.48576 -57.8059 4.77832L-58.0647 4.65723C-60.0398 3.733 -61.0276 1.86653 -61.0276 0H453.905Z" fill="#4B0082"/>
</svg>
