<svg width="1438" height="656" viewBox="0 0 1438 656" fill="none" xmlns="http://www.w3.org/2000/svg">
<path d="M1661.16 0C1661.16 6.83916 1657.54 13.678 1650.31 17.0645L1649.36 17.5088C1635.99 23.7651 1635.15 42.4651 1647.91 49.8877C1661.28 57.6657 1659.56 77.498 1645.05 82.8584L1639.55 84.8926C1626.05 89.8772 1623.61 107.917 1635.3 116.305C1647.52 125.075 1644.18 144.083 1629.7 148.157L1619.6 150.999C1606.05 154.814 1602.08 172.107 1612.61 181.453C1623.6 191.21 1618.7 209.332 1604.29 212.225L1589.85 215.124C1576.27 217.851 1570.81 234.32 1580.08 244.615C1589.75 255.353 1583.35 272.528 1569.01 274.318L1550.72 276.603C1537.11 278.302 1530.21 293.87 1538.08 305.095C1546.29 316.798 1538.41 332.962 1524.13 333.702L1502.73 334.812C1489.09 335.52 1480.75 350.11 1487.07 362.224C1493.66 374.859 1484.31 389.941 1470.06 389.656L1446.5 389.186C1432.78 388.911 1423.02 402.441 1427.61 415.373C1432.41 428.877 1421.58 442.798 1407.31 441.481L1381.62 439.109C1368.32 437.882 1357.58 449.781 1360.15 462.883L1360.59 465.115C1363.29 478.821 1351.46 490.998 1337.68 488.701L1309.22 483.957C1296.69 481.868 1285.41 491.842 1285.95 504.535L1286.21 510.572C1286.77 523.885 1274.41 534.019 1261.47 530.849L1230.72 523.318C1218.99 520.445 1207.41 528.544 1206.09 540.548L1204.98 550.524C1203.59 563.156 1190.92 571.301 1178.85 567.325L1147.03 556.847C1136.11 553.248 1124.41 559.585 1121.45 570.702L1117.82 584.352C1114.69 596.099 1101.9 602.365 1090.7 597.632L1059.07 584.261C1048.93 579.972 1037.23 584.693 1032.9 594.82L1025.75 611.526C1021.15 622.281 1008.35 626.811 998.011 621.342L967.775 605.346C958.378 600.374 946.733 603.623 941.268 612.742L929.937 631.646C924.099 641.385 911.335 644.317 901.833 638.102L874.086 619.95C865.408 614.273 853.83 616.17 847.418 624.32L831.586 644.445C824.696 653.203 811.976 654.642 803.305 647.643L778.954 627.986C770.988 621.556 759.452 622.18 752.226 629.432L731.941 649.784C724.125 657.627 711.425 657.627 703.609 649.784L683.325 629.432C676.099 622.18 664.563 621.556 656.597 627.986L632.246 647.643C623.575 654.642 610.855 653.203 603.965 644.445L588.133 624.32C581.721 616.17 570.143 614.273 561.465 619.95L533.718 638.102C524.216 644.317 511.451 641.385 505.614 631.646L494.283 612.742C488.818 603.623 477.173 600.374 467.775 605.346L437.54 621.342C427.201 626.811 414.396 622.281 409.798 611.526L402.655 594.82C398.326 584.693 386.622 579.972 376.478 584.261L344.848 597.632C333.651 602.365 320.856 596.099 317.731 584.352L314.102 570.702C311.145 559.585 299.443 553.248 288.517 556.847L256.703 567.325C244.632 571.301 231.963 563.156 230.567 550.524L229.465 540.548C228.139 528.544 216.557 520.445 204.827 523.318L174.085 530.849C161.143 534.019 148.778 523.885 149.345 510.572L149.602 504.535C150.142 491.842 138.864 481.868 126.332 483.957L97.8701 488.701C84.092 490.998 72.2629 478.821 74.957 465.115L75.3965 462.883C77.9719 449.781 67.2298 437.882 53.9336 439.109L28.2363 441.481C13.968 442.798 3.14413 428.877 7.9375 415.373C12.528 402.441 2.76939 388.911 -10.9502 389.186L-34.5127 389.656C-48.7619 389.941 -58.1126 374.86 -51.5205 362.224C-45.201 350.11 -53.5361 335.52 -67.1807 334.812L-88.583 333.702C-102.859 332.962 -110.74 316.798 -102.531 305.095C-94.6581 293.87 -101.562 278.302 -115.167 276.603L-133.459 274.318C-147.795 272.528 -154.197 255.353 -144.53 244.615C-135.262 234.32 -140.717 217.851 -154.299 215.124L-168.742 212.225C-183.153 209.332 -188.05 191.21 -177.057 181.453C-166.526 172.107 -170.498 154.814 -184.051 150.999L-194.147 148.157C-208.625 144.083 -211.968 125.075 -199.75 116.305C-188.064 107.917 -190.503 89.8772 -203.996 84.8926L-209.504 82.8584C-224.014 77.498 -225.733 57.6657 -212.362 49.8877C-199.603 42.4651 -200.438 23.7651 -213.808 17.5088L-214.757 17.0645C-221.994 13.678 -225.612 6.83915 -225.612 0H1661.16Z" fill="#FAF7FB"/>
</svg>
